<svg width="32" height="40" viewBox="0 0 32 40" fill="none" xmlns="http://www.w3.org/2000/svg">
<path d="M6.20785 3.26321C8.00722 4.07901 9.08684 5.0761 9.17681 5.34803C9.08684 4.89481 8.81694 2.71934 8.54703 1.35967C9.53669 2.08482 11.8759 3.71643 12.7756 4.26029C13.1354 3.26321 14.2151 0 14.2151 0C14.2151 0 16.2843 3.26321 16.5542 3.71643C16.9141 3.35385 19.3433 0.725159 19.8831 0C19.973 1.54096 20.153 3.71643 20.243 4.07901C20.3329 3.80707 21.2326 2.53805 22.7621 1.54096C22.0423 2.90063 21.7724 4.53224 21.6825 6.16384C20.153 5.80127 18.7135 5.43868 16.9141 5.43868C13.7652 5.43868 10.7962 6.25448 8.27712 7.79544C7.82728 6.16384 7.10753 4.44159 6.20785 3.26321ZM30.2295 31.0911L28.79 29.4595C28.4301 33.7198 26.4508 37.1643 22.5821 39.7024L21.9524 37.3456C18.8035 39.7024 13.3154 41.062 8.72697 38.4333C9.35674 35.4421 9.80659 32.3602 8.72697 28.7344C6.20784 32.8134 3.77869 34.445 3.77869 34.445C2.06928 31.4537 2.15925 25.5618 2.78903 23.8396L0 24.9273C0 22.8425 1.4395 18.6728 3.50878 16.316L1.70941 15.9535C2.87901 13.5061 4.67838 11.2399 7.10753 9.51769C6.38779 10.6054 6.38778 13.2341 8.45705 14.2312C7.64734 12.6903 7.4674 10.968 8.36709 9.88027C9.35674 8.88318 10.7063 9.24576 11.606 9.97092C11.2461 9.15512 10.5263 8.06738 9.26678 8.06738C11.606 6.88899 14.2151 6.16384 16.9141 6.16384C17.364 6.16384 17.9038 6.16384 18.5336 6.25448C19.3433 6.61707 20.6028 7.79544 21.0527 8.5206C21.0527 8.5206 21.0527 7.7048 20.6928 6.61707C23.6618 7.34222 25.1013 8.70189 25.731 9.15511C25.821 10.5148 26.1809 11.3306 26.7207 12.509C25.731 11.4212 23.2119 9.60834 22.0423 9.24576C22.0423 9.24576 21.9524 10.3335 21.5925 10.968C19.2533 9.24576 18.0837 8.79253 18.0837 8.79253C15.5646 9.15511 13.7652 10.2429 12.9555 11.0587L13.7652 11.7838C12.1458 12.237 11.2461 13.5967 11.2461 13.5967L12.6856 13.8686C12.6856 13.8686 12.5956 15.5002 14.5749 16.4067C16.2843 17.4038 18.8934 16.1347 21.1426 17.1318C19.5232 15.3189 18.6235 14.5938 18.6235 14.5938C18.6235 14.5938 17.9937 14.5031 17.5439 14.5031C17.094 14.5031 16.1944 14.5938 15.2947 14.2312C14.9348 13.9593 14.305 13.778 13.9451 13.5061C13.9451 13.5061 15.0248 12.4183 16.5542 12.0557C16.5542 12.0557 17.9937 12.4183 19.0734 13.2341C19.8831 12.509 20.6028 12.509 20.6028 12.509C20.6028 12.509 19.7931 13.2341 20.153 14.1406C21.2326 15.1377 22.4922 16.588 22.4922 16.588C23.8417 15.8628 26.4508 16.1347 26.9006 16.6786C26.1809 15.6815 25.1912 14.9564 24.4715 14.3219C24.3815 13.9593 23.4818 12.7809 23.3919 12.5996C23.3919 12.5996 24.2016 12.9622 25.0113 13.5967C25.2812 13.2341 25.6411 12.9622 26.0909 12.8715C26.7207 13.3248 26.8107 14.0499 26.7207 14.2312C26.3608 14.5938 26.2709 14.5938 26.2709 14.5938L27.6204 16.0441L27.7104 15.047C30.6793 19.5793 32.3887 24.6554 30.2295 31.0911ZM24.4715 21.5734V19.2167C24.4715 19.2167 23.4818 18.8541 22.3122 18.0383C20.063 18.4009 17.5439 20.4857 17.5439 20.4857C17.5439 20.4857 18.5335 22.2079 19.4332 24.0208C21.2326 24.2928 23.6618 22.2986 24.4715 21.5734ZM26.6307 25.6524C26.6307 25.6524 26.3608 24.6554 25.6411 23.8396H23.9317C23.9317 23.8396 21.5925 25.9244 20.243 25.9244C20.243 25.9244 21.0527 27.3747 21.4125 28.1905C22.2223 27.9186 23.5718 27.3747 24.0216 26.7402C24.0216 26.7402 24.3815 27.9186 24.3815 29.1876C25.2812 28.7344 26.2709 27.6466 26.6307 25.6524ZM27.3505 18.2196C26.3608 18.9447 25.731 19.3073 25.731 19.3073V21.6641C26.3608 22.3892 26.9006 22.8425 27.4404 24.0208C28.3401 22.3892 28.1602 20.2138 27.3505 18.2196Z" fill="white"/>
</svg>
