<svg width="39" height="39" viewBox="0 0 39 39" fill="none" xmlns="http://www.w3.org/2000/svg">
<g clip-path="url(#clip0_7_150)">
<path d="M33.6997 10.9539C33.1455 10.9539 32.6139 11.1738 32.2217 11.5653C31.8294 11.9568 31.6085 12.4879 31.6074 13.0421C31.6077 13.5969 31.8282 14.1289 32.2205 14.5213C32.6129 14.9136 33.1449 15.1341 33.6997 15.1344C34.2539 15.1333 34.785 14.9124 35.1765 14.5201C35.568 14.1279 35.7879 13.5963 35.7879 13.0421C35.7869 12.4886 35.5666 11.958 35.1752 11.5666C34.7838 11.1752 34.2532 10.9549 33.6997 10.9539ZM31.2734 16.1065C31.2947 16.1802 31.2256 16.2285 31.0909 16.3323L31.0085 16.376L31.039 16.4319C31.0563 16.4624 31.0258 16.5189 30.9693 16.5453L30.8438 16.6104C30.7873 16.6363 30.7263 16.6317 30.709 16.5972L30.6831 16.5453L30.5265 16.6231L30.5529 16.6755C30.5702 16.71 30.5351 16.7619 30.4787 16.7883L30.3531 16.8493C30.2921 16.8748 30.2311 16.8666 30.2143 16.8315L30.1924 16.7838C29.7104 17.0095 29.1725 17.2485 28.6163 17.5088L28.6468 17.5825C28.6646 17.613 28.6295 17.6649 28.573 17.6954L28.4475 17.7518C28.391 17.7778 28.3305 17.7691 28.3127 17.7345L28.2822 17.6654L28.1002 17.7518L28.1348 17.8215C28.152 17.8606 28.1175 17.9125 28.061 17.9384L27.9349 17.9949C27.879 18.0213 27.818 18.0167 27.8007 17.9776L27.7702 17.9084C27.514 18.0122 27.2404 18.0513 27.0411 17.6781C26.9542 17.5047 26.9496 17.1051 26.8845 16.8926C26.8499 16.7797 26.7198 16.7624 26.7198 16.7624C24.2716 16.2936 23.4423 16.8143 21.8712 16.4278C21.3806 16.3063 21.1111 15.8508 20.5035 15.8462C19.1795 15.807 18.785 15.8248 17.3476 15.7684C17.3222 15.853 17.2991 15.9383 17.2785 16.0241L12.2255 15.9987L12.9938 16.38L13.2455 18.607C13.2455 18.607 13.0421 18.668 12.9811 18.6767C13.0289 19.1241 13.0762 19.7226 13.1026 20.261C13.124 20.7471 13.1504 21.255 13.1458 21.5809C13.1412 21.6806 13.1412 21.919 13.0024 22.1799C12.9114 22.3533 12.7508 22.4966 12.6211 22.5917C12.5774 22.6268 12.3821 22.757 12.1564 22.8917C11.922 23.0264 11.6612 23.1652 11.5224 23.2344C11.5356 23.2954 11.5788 23.3564 11.592 23.4037C8.51847 24.8884 4.71175 25.3963 3.47877 27.7575C3.33539 28.0311 2.83203 27.8882 2.81881 27.5928C2.81474 27.458 2.81474 27.2369 2.82389 27.1199L2.77559 27.1148C2.73644 27.1148 2.70644 27.0589 2.71051 26.9979L2.71509 26.8591C2.71966 26.794 2.75424 26.7462 2.79339 26.7462L2.84525 26.7508C2.86253 26.612 2.88847 26.4772 2.92355 26.3471L2.87575 26.3298C2.84067 26.3166 2.82796 26.2561 2.84982 26.1951L2.89304 26.0649C2.91897 26.0039 2.9627 25.9693 3.00185 25.9825L3.04964 25.9952C3.26624 25.4832 3.69181 25.2575 3.88705 24.7755L3.85654 24.7628C3.8179 24.7496 3.80468 24.6885 3.82604 24.628L3.86976 24.4979C3.89569 24.4414 3.94349 24.4023 3.97857 24.4155L4.01314 24.4241C4.04365 24.3545 4.07823 24.2767 4.11738 24.203L4.07365 24.1725C4.03908 24.1506 4.03908 24.0901 4.07365 24.0377L4.14788 23.9208C4.18246 23.8684 4.23889 23.8425 4.2694 23.8643L4.28669 23.873L4.30804 23.8776C4.31719 23.8776 4.32126 23.873 4.32991 23.8689C4.35177 23.8471 4.37312 23.8252 4.39499 23.8079C4.59481 23.6518 4.84242 23.6777 5.04579 23.7988C5.23697 23.9162 5.99252 24.3458 6.71756 23.6905C7.91545 22.6182 9.31724 21.1554 10.3723 21.1076C10.086 20.4873 9.59078 19.1978 9.53434 18.7204L9.17843 18.6467C8.99641 18.2516 8.54491 16.4197 8.41882 15.0433C8.41882 15.0433 8.27137 13.5587 8.41475 13.038C8.33187 13.0294 8.18442 13.1509 8.1412 13.1509C7.95003 12.6781 8.57491 8.67966 9.19572 7.51634L10.1465 7.13907C10.0469 7.12585 9.36096 7.09534 7.55497 6.9479C6.54825 7.83767 5.38035 8.80168 4.79005 9.3264C4.69039 9.40063 4.52057 9.96907 4.52057 9.96907C4.52057 9.96907 4.2211 10.2335 3.94806 10.4246C3.57893 10.6855 2.68458 10.8807 2.49391 10.5772C2.44561 10.5029 2.45476 10.4684 2.49798 10.4246C2.63679 10.2818 3.15794 10.0301 3.3359 9.7001C3.05371 9.84298 2.73237 9.995 2.48069 9.96907C2.37239 9.9645 2.32002 9.69553 2.45883 9.64774C2.8366 9.48707 3.14015 9.41792 3.36183 9.10116C3.57893 8.80118 3.83977 8.5978 4.18652 8.58865C4.18652 8.58865 5.86642 6.39674 6.85586 5.35494C7.12991 5.06818 7.63784 5.16376 7.63784 5.16376L7.72428 4.82972C7.72428 4.82972 11.1192 4.42601 12.6989 4.95123C12.6603 3.98722 13.094 2.7151 14.5923 2.7151C15.3652 2.7151 16.5021 3.39641 16.6541 4.22518C16.7019 4.48194 16.5544 4.65125 16.4761 4.97259C16.3414 5.46273 16.528 6.00117 16.4716 6.17048C16.4283 6.31336 16.2677 6.30065 16.1329 6.49131C15.9855 6.69571 15.8207 7.07755 15.8207 7.07755L15.6164 7.53769L14.5573 7.45939C14.1708 8.29324 13.3767 9.99907 13.099 11.683C13.9324 11.7568 17.6954 12.2998 17.6954 12.2998L17.7869 12.6079C17.7869 12.6079 19.3758 12.7986 20.6733 13.4153C20.9642 13.4845 21.6938 13.3762 22.1712 13.5973C22.2058 13.576 22.2841 13.4977 22.3146 13.4758C24.0077 13.997 25.4049 14.8822 27.0416 15.2772C27.0416 15.2772 27.8012 15.4643 28.0615 15.5162C28.6651 15.6331 29.0515 15.6596 29.3682 15.6855C29.8935 15.7247 30.1843 15.716 30.5661 15.7374C30.8356 15.7552 31.1651 15.712 31.2739 16.1065" fill="white"/>
<path d="M35.9221 34.4573L35.3369 36.2846H36.5002L35.9221 34.4573ZM36.7036 37.0137H35.1193L34.8371 37.8603H33.8304L35.2754 33.8192H36.5648L38.0017 37.8603H36.9858L36.7036 37.0137ZM33.4089 35.525V37.7215C33.0316 37.8517 32.5323 37.9345 32.0112 37.9345C30.6048 37.9345 29.9449 37.3091 29.9449 35.8377C29.9449 34.3749 30.6048 33.7455 32.0112 33.7455C32.5105 33.7455 32.9838 33.8238 33.3438 33.9712V34.7527C32.9399 34.6146 32.5163 34.5427 32.0895 34.5396C31.2429 34.5396 30.978 34.8828 30.978 35.8377C30.978 36.8363 31.2561 37.1663 32.0549 37.1663C32.2369 37.1663 32.4149 37.153 32.5842 37.1312V36.2287H31.8337V35.525H33.4089ZM28.2177 33.8192H29.229V37.8603H28.2172L28.2177 33.8192ZM24.8447 33.8192H25.8514V37.092H27.5877V37.8603H24.8447V33.8192ZM21.1549 37.7037V36.9187C21.6409 37.0788 22.0752 37.1353 22.5048 37.1353C22.969 37.1353 23.1734 37.0137 23.1734 36.7016C23.1734 36.428 23.0865 36.3497 22.7133 36.2719L22.0401 36.1326C21.3415 35.9897 21.1071 35.703 21.1071 35.013C21.1071 34.1273 21.6277 33.7455 22.6782 33.7455C23.1561 33.7455 23.603 33.8232 23.9676 33.9626V34.7522C23.5727 34.6137 23.1576 34.5419 22.7392 34.5396C22.2399 34.5396 22.0706 34.6698 22.0706 34.9871C22.0706 35.2474 22.1875 35.3211 22.5134 35.3903L23.1642 35.5296C23.9284 35.6943 24.1369 35.9506 24.1369 36.671C24.1369 37.5395 23.603 37.9345 22.5134 37.9345C22.036 37.9345 21.5759 37.8562 21.1549 37.7042V37.7037ZM17.6863 33.8192H20.5168V34.592H18.6935V35.4426H20.2087V36.2023H18.6935V37.092H20.5559V37.8603H17.6868L17.6863 33.8192ZM15.1339 37.092C15.7242 37.092 15.9199 36.7839 15.9199 35.8377C15.9199 34.9001 15.7242 34.592 15.1339 34.592H14.3702V37.092H15.1339ZM13.3589 33.8192H15.1644C16.5794 33.8192 16.949 34.4008 16.949 35.8377C16.949 37.2354 16.5448 37.8603 15.1644 37.8603H13.3589V33.8192ZM12.5296 33.8192V37.8603H11.3012L9.58217 34.9393V37.8603H8.64459V33.8192H9.873L11.5875 36.7448V33.8192H12.5296ZM4.28214 36.545V33.8192H5.28886V36.515C5.28886 36.9624 5.49325 37.1312 6.03983 37.1312C6.58234 37.1312 6.78674 36.9619 6.78674 36.515V33.8192H7.79803V36.545C7.79803 37.4957 7.24688 37.934 6.03983 37.934C4.83279 37.934 4.28214 37.4957 4.28214 36.545ZM2.64088 36.6624C2.64088 36.2892 2.49343 36.1326 2.15074 36.1326H1.24317V37.179H2.15074C2.51072 37.179 2.64088 37.027 2.64088 36.6624ZM1.24317 35.5077H2.08973C2.42835 35.5077 2.58038 35.3603 2.58038 35.013C2.58038 34.6485 2.43699 34.5046 2.08973 34.5046H1.24317V35.5077ZM3.62218 36.758C3.62218 37.4785 3.28813 37.8603 2.37649 37.8603H0.284241V33.8192H2.29819C3.24034 33.8192 3.56574 34.1924 3.56574 34.8742C3.56574 35.3994 3.3705 35.6338 2.81019 35.7726L2.70647 35.8031L2.79748 35.8204C3.42694 35.9592 3.62218 36.1936 3.62218 36.758Z" fill="white"/>
</g>
<defs>
<clipPath id="clip0_7_150">
<rect width="38.1333" height="38.1333" fill="white"/>
</clipPath>
</defs>
</svg>
