<svg width="29" height="43" viewBox="0 0 29 43" fill="none" xmlns="http://www.w3.org/2000/svg">
<g clip-path="url(#clip0_7_32)">
<path d="M0.422363 26.038L14.3643 34.8413L8.87157 26.038H0.422363Z" fill="#C3C3C3"/>
<path d="M19.7345 26.038L14.3643 34.8413L28.1837 26.038H19.7345Z" fill="#D7D7D7"/>
<path d="M8.87158 26.038L14.3643 34.8413V26.038H8.87158Z" fill="#E3E3E3"/>
<path d="M14.3031 10.8181L8.87158 26.038H14.3643L14.3031 10.8181Z" fill="#D7D7D7"/>
<path d="M14.303 10.8181L14.3643 26.038H19.7345L14.303 10.8181Z" fill="#C3C3C3"/>
<path d="M14.3643 26.038V34.8413L19.7345 26.038H14.3643Z" fill="white"/>
<path d="M28.1756 26.038L17.131 0H11.3976L0.426453 26.038H8.87566L14.301 10.8182L16.8352 17.9083H14.301L12.8524 22.31H18.4063L19.7346 26.0297L28.1756 26.038Z" fill="white"/>
<path d="M2.16074 42.4667C1.74778 42.467 1.33808 42.3928 0.950795 42.2476C0.610757 42.1325 0.298564 41.9458 0.0346604 41.7C0.0253346 41.6911 0.0179029 41.6804 0.0128232 41.6685C0.00774356 41.6566 0.00512695 41.6438 0.00512695 41.6308C0.00512695 41.6178 0.00774356 41.605 0.0128232 41.5931C0.0179029 41.5812 0.0253346 41.5704 0.0346604 41.5615L0.646774 40.8465C0.67942 40.8031 0.718193 40.8011 0.767162 40.8465C1.16848 41.2019 1.67892 41.4057 2.21175 41.4231C2.44573 41.4365 2.67769 41.3727 2.87283 41.2412C2.94862 41.1865 3.01001 41.1139 3.05162 41.0296C3.09324 40.9453 3.11382 40.8519 3.11156 40.7577C3.11538 40.6784 3.1001 40.5993 3.06704 40.5273C3.03398 40.4553 2.98414 40.3925 2.9218 40.3444C2.72102 40.2227 2.49426 40.1518 2.26072 40.1377L1.96894 40.0964C0.804566 39.9201 0.222378 39.3573 0.222378 38.4081C0.214072 38.1742 0.257597 37.9415 0.349752 37.7269C0.441907 37.5124 0.580349 37.3214 0.754914 37.1682C1.15755 36.8389 1.66644 36.6725 2.18318 36.7011C2.85523 36.6756 3.51605 36.881 4.05829 37.2839C4.06901 37.2893 4.07826 37.2973 4.08524 37.3071C4.09221 37.317 4.0967 37.3285 4.09831 37.3405C4.09992 37.3525 4.0986 37.3647 4.09447 37.3761C4.09034 37.3875 4.08353 37.3977 4.07462 37.4058L3.58084 38.1539C3.57573 38.164 3.56848 38.1728 3.5596 38.1796C3.55072 38.1865 3.54045 38.1913 3.52951 38.1937C3.51858 38.1961 3.50726 38.196 3.49638 38.1934C3.4855 38.1908 3.47532 38.1857 3.46658 38.1787C3.08986 37.9124 2.64442 37.7637 2.18522 37.7509C1.98874 37.7388 1.79453 37.7989 1.6384 37.9204C1.57629 37.9747 1.527 38.0424 1.49417 38.1186C1.46133 38.1948 1.44577 38.2775 1.44865 38.3605C1.44774 38.4389 1.46587 38.5162 1.50145 38.5858C1.53703 38.6553 1.58898 38.7149 1.65269 38.7594C1.85272 38.8846 2.07935 38.9597 2.31377 38.9784L2.60554 39.0197C3.76312 39.1782 4.3419 39.7423 4.3419 40.7122C4.35028 40.9542 4.30388 41.1949 4.20627 41.4159C4.10867 41.6369 3.96243 41.8323 3.77876 41.9872C3.40129 42.3096 2.86875 42.4708 2.17502 42.4708L2.16074 42.4667Z" fill="white"/>
<path d="M5.1479 42.2931V36.8685C5.14615 36.8573 5.14706 36.8457 5.15054 36.8349C5.15403 36.8241 5.15999 36.8142 5.16795 36.8062C5.1759 36.7981 5.18562 36.7921 5.19632 36.7885C5.20702 36.785 5.2184 36.7841 5.22951 36.7859H8.76753C8.77864 36.7841 8.79001 36.785 8.80071 36.7885C8.81141 36.7921 8.82113 36.7981 8.82909 36.8062C8.83704 36.8142 8.84301 36.8241 8.8465 36.8349C8.84998 36.8457 8.85089 36.8573 8.84914 36.8685V37.7468C8.85089 37.758 8.84998 37.7696 8.8465 37.7804C8.84301 37.7912 8.83704 37.8011 8.82909 37.8091C8.82113 37.8172 8.81141 37.8232 8.80071 37.8268C8.79001 37.8303 8.77864 37.8312 8.76753 37.8294H6.39049C6.38382 37.8284 6.37699 37.8289 6.37057 37.8311C6.36416 37.8332 6.35832 37.8368 6.35355 37.8416C6.34878 37.8465 6.3452 37.8524 6.34311 37.8589C6.34102 37.8654 6.34047 37.8723 6.34151 37.879V38.9887C6.34047 38.9955 6.34102 39.0024 6.34311 39.0089C6.3452 39.0154 6.34878 39.0213 6.35355 39.0262C6.35832 39.031 6.36416 39.0346 6.37057 39.0367C6.37699 39.0389 6.38382 39.0394 6.39049 39.0383H8.36965C8.38077 39.0366 8.39214 39.0375 8.40283 39.041C8.41353 39.0446 8.42326 39.0506 8.43122 39.0587C8.43917 39.0667 8.44513 39.0766 8.44862 39.0874C8.4521 39.0982 8.45301 39.1098 8.45127 39.121V39.9931C8.45301 40.0043 8.4521 40.0158 8.44862 40.0267C8.44513 40.0375 8.43917 40.0474 8.43122 40.0554C8.42326 40.0635 8.41353 40.0695 8.40283 40.073C8.39214 40.0766 8.38077 40.0775 8.36965 40.0757H6.39049C6.38382 40.0747 6.37699 40.0752 6.37057 40.0773C6.36416 40.0795 6.35832 40.0831 6.35355 40.0879C6.34878 40.0928 6.3452 40.0987 6.34311 40.1052C6.34102 40.1117 6.34047 40.1186 6.34151 40.1253V41.2784C6.34047 41.2852 6.34102 41.2921 6.34311 41.2986C6.3452 41.3051 6.34878 41.311 6.35355 41.3158C6.35832 41.3207 6.36416 41.3243 6.37057 41.3264C6.37699 41.3285 6.38382 41.3291 6.39049 41.328H8.76957C8.78069 41.3263 8.79205 41.3272 8.80275 41.3307C8.81345 41.3342 8.82317 41.3403 8.83113 41.3483C8.83908 41.3564 8.84505 41.3662 8.84853 41.3771C8.85202 41.3879 8.85293 41.3994 8.85118 41.4107V42.289C8.85293 42.3002 8.85202 42.3117 8.84853 42.3226C8.84505 42.3334 8.83908 42.3432 8.83113 42.3513C8.82317 42.3594 8.81345 42.3654 8.80275 42.3689C8.79205 42.3725 8.78069 42.3734 8.76957 42.3716H5.22951C5.2184 42.3734 5.20702 42.3725 5.19632 42.3689C5.18562 42.3654 5.1759 42.3594 5.16795 42.3513C5.15999 42.3432 5.15403 42.3334 5.15054 42.3226C5.14706 42.3117 5.14615 42.3002 5.1479 42.289V42.2931Z" fill="white"/>
<path d="M14.0684 42.3757H12.9156C12.8893 42.3775 12.8632 42.3703 12.8414 42.3554C12.8196 42.3404 12.8033 42.3185 12.7952 42.2931L11.8526 40.2452H11.1139C11.1073 40.2441 11.1004 40.2447 11.094 40.2468C11.0876 40.2489 11.0818 40.2525 11.077 40.2574C11.0722 40.2622 11.0686 40.2681 11.0666 40.2746C11.0645 40.2811 11.0639 40.288 11.065 40.2948V42.2931C11.0667 42.3043 11.0658 42.3159 11.0623 42.3267C11.0588 42.3375 11.0529 42.3474 11.0449 42.3554C11.037 42.3635 11.0272 42.3695 11.0165 42.3731C11.0058 42.3766 10.9945 42.3775 10.9833 42.3757H9.95296C9.94184 42.3775 9.93048 42.3766 9.91978 42.3731C9.90908 42.3695 9.89935 42.3635 9.8914 42.3554C9.88344 42.3474 9.87748 42.3375 9.87399 42.3267C9.87051 42.3159 9.8696 42.3043 9.87135 42.2931V36.8685C9.8696 36.8572 9.87051 36.8457 9.87399 36.8349C9.87748 36.8241 9.88344 36.8142 9.8914 36.8062C9.89935 36.7981 9.90908 36.7921 9.91978 36.7885C9.93048 36.785 9.94184 36.7841 9.95296 36.7858H12.1525C12.6499 36.7624 13.1369 36.935 13.5114 37.2673C13.6816 37.426 13.8159 37.62 13.905 37.8362C13.9941 38.0524 14.0359 38.2855 14.0276 38.5196C14.034 38.852 13.9439 39.179 13.7685 39.4599C13.5945 39.7352 13.3429 39.9512 13.0462 40.0799L14.1337 42.2827C14.1389 42.293 14.1416 42.3043 14.1416 42.3158C14.1416 42.3273 14.1389 42.3387 14.1337 42.3489C14.1267 42.3594 14.1167 42.3676 14.1051 42.3724C14.0935 42.3772 14.0807 42.3783 14.0684 42.3757ZM12.0811 39.2119C12.2791 39.2222 12.4735 39.1549 12.6238 39.0239C12.7536 38.8885 12.8262 38.7073 12.8262 38.5186C12.8262 38.33 12.7536 38.1487 12.6238 38.0134C12.4734 37.8825 12.2791 37.8152 12.0811 37.8253H11.1058C11.0991 37.8242 11.0923 37.8248 11.0859 37.8269C11.0794 37.829 11.0736 37.8327 11.0688 37.8375C11.0641 37.8423 11.0605 37.8482 11.0584 37.8547C11.0563 37.8612 11.0558 37.8681 11.0568 37.8749V39.1644C11.0558 39.1712 11.0563 39.1781 11.0584 39.1846C11.0605 39.1911 11.0641 39.197 11.0688 39.2018C11.0736 39.2066 11.0794 39.2103 11.0859 39.2124C11.0923 39.2145 11.0991 39.2151 11.1058 39.214H12.0811V39.2119Z" fill="white"/>
<path d="M14.9744 42.2931V36.8685C14.9726 36.8573 14.9735 36.8457 14.977 36.8349C14.9805 36.8241 14.9865 36.8142 14.9944 36.8062C15.0024 36.7981 15.0121 36.7921 15.0228 36.7885C15.0335 36.785 15.0449 36.7841 15.056 36.7859H16.0864C16.0975 36.7841 16.1089 36.785 16.1196 36.7885C16.1303 36.7921 16.14 36.7981 16.1479 36.8062C16.1559 36.8142 16.1619 36.8241 16.1654 36.8349C16.1688 36.8457 16.1697 36.8573 16.168 36.8685V42.2931C16.1697 42.3043 16.1688 42.3159 16.1654 42.3267C16.1619 42.3375 16.1559 42.3474 16.1479 42.3554C16.14 42.3635 16.1303 42.3695 16.1196 42.3731C16.1089 42.3766 16.0975 42.3775 16.0864 42.3757H15.056C15.0449 42.3775 15.0335 42.3766 15.0228 42.3731C15.0121 42.3695 15.0024 42.3635 14.9944 42.3554C14.9865 42.3474 14.9805 42.3375 14.977 42.3267C14.9735 42.3159 14.9726 42.3043 14.9744 42.2931Z" fill="white"/>
<path d="M17.3494 42.2931V36.8685C17.3476 36.8573 17.3485 36.8457 17.352 36.8349C17.3555 36.8241 17.3615 36.8142 17.3694 36.8062C17.3774 36.7981 17.3871 36.7921 17.3978 36.7885C17.4085 36.785 17.4199 36.7841 17.431 36.7859H20.969C20.9801 36.7841 20.9915 36.785 21.0022 36.7885C21.0129 36.7921 21.0226 36.7981 21.0306 36.8062C21.0385 36.8142 21.0445 36.8241 21.048 36.8349C21.0515 36.8457 21.0524 36.8573 21.0506 36.8685V37.7468C21.0524 37.758 21.0515 37.7696 21.048 37.7804C21.0445 37.7912 21.0385 37.8011 21.0306 37.8091C21.0226 37.8172 21.0129 37.8232 21.0022 37.8268C20.9915 37.8303 20.9801 37.8312 20.969 37.8294H18.5858C18.5792 37.8284 18.5723 37.8289 18.5659 37.8311C18.5595 37.8332 18.5537 37.8368 18.5489 37.8416C18.5441 37.8465 18.5406 37.8524 18.5385 37.8589C18.5364 37.8654 18.5358 37.8723 18.5369 37.879V38.9887C18.5358 38.9955 18.5364 39.0024 18.5385 39.0089C18.5406 39.0154 18.5441 39.0213 18.5489 39.0262C18.5537 39.031 18.5595 39.0346 18.5659 39.0367C18.5723 39.0389 18.5792 39.0394 18.5858 39.0383H20.565C20.5761 39.0366 20.5875 39.0375 20.5982 39.041C20.6089 39.0446 20.6186 39.0506 20.6266 39.0587C20.6345 39.0667 20.6405 39.0766 20.644 39.0874C20.6475 39.0982 20.6484 39.1098 20.6466 39.121V39.9931C20.6484 40.0043 20.6475 40.0158 20.644 40.0267C20.6405 40.0375 20.6345 40.0474 20.6266 40.0554C20.6186 40.0635 20.6089 40.0695 20.5982 40.073C20.5875 40.0766 20.5761 40.0775 20.565 40.0757H18.5858C18.5792 40.0747 18.5723 40.0752 18.5659 40.0773C18.5595 40.0795 18.5537 40.0831 18.5489 40.0879C18.5441 40.0928 18.5406 40.0987 18.5385 40.1052C18.5364 40.1117 18.5358 40.1186 18.5369 40.1253V41.2784C18.5358 41.2852 18.5364 41.2921 18.5385 41.2986C18.5406 41.3051 18.5441 41.311 18.5489 41.3158C18.5537 41.3207 18.5595 41.3243 18.5659 41.3264C18.5723 41.3285 18.5792 41.3291 18.5858 41.328H20.9649C20.976 41.3263 20.9874 41.3272 20.9981 41.3307C21.0088 41.3342 21.0185 41.3403 21.0265 41.3483C21.0344 41.3564 21.0404 41.3662 21.0439 41.3771C21.0474 41.3879 21.0483 41.3994 21.0465 41.4107V42.289C21.0483 42.3002 21.0474 42.3117 21.0439 42.3226C21.0404 42.3334 21.0344 42.3432 21.0265 42.3513C21.0185 42.3594 21.0088 42.3654 20.9981 42.3689C20.9874 42.3725 20.976 42.3734 20.9649 42.3716H17.431C17.4199 42.3734 17.4085 42.3725 17.3978 42.3689C17.3871 42.3654 17.3774 42.3594 17.3694 42.3513C17.3615 42.3432 17.3555 42.3334 17.352 42.3226C17.3485 42.3117 17.3476 42.3002 17.3494 42.289V42.2931Z" fill="white"/>
<path d="M23.597 42.2931L25.4965 36.8685C25.5014 36.8445 25.5145 36.8229 25.5336 36.8078C25.5526 36.7926 25.5764 36.7849 25.6006 36.7859H26.6208C26.6451 36.7844 26.6691 36.792 26.6882 36.8073C26.7074 36.8225 26.7204 36.8443 26.7249 36.8685L28.5918 42.2931C28.6081 42.3489 28.5918 42.3757 28.5367 42.3757H27.4818C27.4575 42.3772 27.4335 42.3695 27.4144 42.3543C27.3952 42.3391 27.3822 42.3173 27.3778 42.2931L27.0615 41.3156H25.1313L24.8232 42.2931C24.8184 42.3171 24.8053 42.3387 24.7862 42.3538C24.7671 42.369 24.7434 42.3767 24.7192 42.3757H23.6561C23.601 42.3757 23.5827 42.3489 23.599 42.2931H23.597ZM25.4639 40.2886H26.7473L26.1229 38.3337H26.0985L25.4639 40.2886Z" fill="white"/>
</g>
<defs>
<clipPath id="clip0_7_32">
<rect width="28.6" height="42.4667" fill="white"/>
</clipPath>
</defs>
</svg>
