<svg width="30" height="42" viewBox="0 0 30 42" fill="none" xmlns="http://www.w3.org/2000/svg">
<path d="M14.6378 10.2763C11.9073 10.2763 9.6897 12.4862 9.6897 15.214C9.6897 17.9417 11.9019 20.1569 14.6325 20.1569C17.363 20.1569 19.5806 17.947 19.5806 15.2193C19.5806 12.4862 17.3683 10.2763 14.6378 10.2763Z" fill="#CE933F"/>
<path d="M4.18587 6.49701C4.14312 6.58242 4.17518 6.68384 4.25533 6.72654L9.49733 9.7692L9.50802 9.77454C9.5668 9.80657 9.63626 9.80123 9.68435 9.76386C9.70038 9.75319 9.71641 9.73717 9.7271 9.72116C9.73244 9.71582 9.73779 9.70514 9.74313 9.69447C10.7531 7.90624 12.5111 6.66783 14.5363 6.31018C14.5416 6.31018 14.5523 6.31018 14.5576 6.30484C14.579 6.2995 14.6004 6.28883 14.6164 6.27815C14.6699 6.24079 14.6966 6.17673 14.6859 6.11268V6.102L13.5744 0.150137V0.139461C13.5691 0.112771 13.5584 0.0914194 13.5424 0.0700675C13.505 0.0220255 13.4462 -0.00466443 13.3821 0.00067356L13.366 0.00601155C9.50267 0.710627 6.13625 3.0807 4.18587 6.49701Z" fill="white"/>
<path d="M1.19349 17.995C1.2202 18.0538 1.27364 18.0911 1.33242 18.0965C1.35914 18.0965 1.3912 18.0965 1.41257 18.0805L7.06602 15.9026L7.07671 15.8972C7.13549 15.8705 7.17824 15.8171 7.17824 15.7531C7.17824 15.7317 7.17823 15.7104 7.17289 15.6944C7.17289 15.6837 7.16755 15.6784 7.16221 15.6677C6.39808 13.762 6.53167 11.6161 7.52022 9.81724C7.52556 9.8119 7.52556 9.80657 7.53091 9.80123C7.54159 9.77988 7.54694 9.75852 7.54694 9.73717C7.55228 9.67312 7.52022 9.60906 7.46144 9.57703L7.45076 9.57169L2.11257 6.71053L2.10189 6.70519C2.08051 6.69452 2.0538 6.68918 2.03242 6.68918C1.97364 6.68918 1.91486 6.71587 1.8828 6.76925C1.8828 6.77459 1.87746 6.77992 1.87746 6.77992C0.0018805 10.2283 -0.249265 14.3385 1.19349 17.995Z" fill="white"/>
<path d="M8.38052 27.4433C8.4393 27.4593 8.50342 27.4379 8.54617 27.3952C8.56754 27.3739 8.57823 27.3472 8.58892 27.3205L10.3897 21.5395L10.395 21.5288C10.4111 21.4647 10.395 21.4007 10.3469 21.358C10.3309 21.342 10.3149 21.3313 10.2935 21.3259C10.2828 21.3206 10.2775 21.3206 10.2668 21.3153C8.30037 20.7281 6.69731 19.2922 5.90112 17.4025C5.90112 17.3972 5.89578 17.3918 5.89578 17.3812C5.88509 17.3598 5.87441 17.3438 5.85838 17.3278C5.81028 17.2851 5.74082 17.2744 5.68204 17.2958L5.67135 17.3011L0.108742 19.7032L0.0980543 19.7085C0.0766802 19.7192 0.0553058 19.7352 0.0392752 19.7512C0.00187049 19.7993 -0.00881689 19.8633 0.00721369 19.9167C0.00721369 19.9221 0.0125575 19.9274 0.0125575 19.9274C1.55149 23.5519 4.61333 26.301 8.38052 27.4433Z" fill="white"/>
<path d="M20.1951 27.7209C20.2432 27.6835 20.2699 27.6248 20.2645 27.5607C20.2592 27.534 20.2485 27.5073 20.2325 27.4807L16.8554 22.4523L16.8447 22.4416C16.8073 22.3882 16.7432 22.3615 16.679 22.3722C16.6577 22.3775 16.6416 22.3829 16.6203 22.3935C16.6096 22.3989 16.6042 22.4042 16.5989 22.4096C14.905 23.5732 12.7836 23.9202 10.8065 23.3544C10.8012 23.349 10.7958 23.349 10.7851 23.349C10.7638 23.3437 10.7424 23.3437 10.721 23.349C10.6569 23.3597 10.6035 23.4078 10.5874 23.4665L10.5821 23.4772L8.96834 29.3116V29.3223C8.94696 29.4077 8.98971 29.4931 9.07521 29.5251L9.09124 29.5304C12.8798 30.598 16.9462 29.9361 20.1951 27.7209Z" fill="white"/>
<path d="M27.8897 18.705C27.8897 18.6089 27.8203 18.5342 27.7241 18.5288L21.6859 18.0591H21.6752C21.6111 18.0538 21.5523 18.0911 21.5203 18.1445C21.5096 18.1605 21.5042 18.1819 21.5042 18.2032C21.5042 18.2139 21.5042 18.2246 21.5042 18.2299C21.3706 20.2797 20.3233 22.1587 18.6561 23.3544C18.6508 23.3597 18.6454 23.3597 18.6401 23.3651C18.6241 23.3811 18.608 23.3971 18.5973 23.4131C18.5653 23.4718 18.5706 23.5412 18.608 23.5946L18.6134 23.6053L22.1935 28.4895L22.1989 28.5002C22.2149 28.5216 22.2309 28.5376 22.2577 28.5483C22.3111 28.5749 22.3752 28.5749 22.4286 28.5429L22.4393 28.5322C25.6187 26.2262 27.6172 22.6284 27.8897 18.705Z" fill="white"/>
<path d="M25.608 7.0575C25.5599 7.01479 25.4958 7.00412 25.437 7.02547C25.4103 7.03615 25.3889 7.05216 25.3676 7.07351L21.1996 11.4667L21.1889 11.4774C21.1462 11.5254 21.1355 11.5948 21.1569 11.6535C21.1622 11.6749 21.1729 11.6909 21.1889 11.7069C21.1943 11.7122 21.205 11.7229 21.2103 11.7282C22.7172 13.1215 23.524 15.1179 23.4011 17.1677C23.4011 17.173 23.4011 17.1837 23.4011 17.189C23.4011 17.2104 23.4065 17.2317 23.4118 17.2531C23.4386 17.3118 23.492 17.3545 23.5561 17.3598H23.5668L29.621 17.6534H29.6317C29.6584 17.6534 29.6798 17.6481 29.7065 17.6374C29.7599 17.616 29.8027 17.5627 29.808 17.5039C29.808 17.4986 29.808 17.4933 29.808 17.4879C30.0218 13.5645 28.4828 9.74785 25.608 7.0575Z" fill="white"/>
<path d="M15.0118 1.64478C14.921 1.66079 14.8622 1.75154 14.8782 1.84228L15.7653 7.83151V7.84219C15.7813 7.9276 15.8561 7.98631 15.9469 7.98098C15.9576 7.98098 15.9683 7.98098 15.9737 7.97564C18.0042 7.65002 20.0721 8.24788 21.6111 9.60906C21.6164 9.6144 21.6218 9.61974 21.6271 9.62508C21.6431 9.63575 21.6645 9.64643 21.6859 9.65711C21.75 9.67312 21.8141 9.65711 21.8569 9.60906L21.8676 9.59839L25.8325 5.02373L25.8378 5.01305C25.8538 4.9917 25.8645 4.97035 25.8699 4.949C25.8859 4.89028 25.8699 4.82622 25.8271 4.78352L25.8164 4.77284C22.8561 2.18925 18.9019 1.04158 15.0118 1.64478Z" fill="white"/>
<path d="M14.6378 10.2069C11.8698 10.2069 9.62555 12.4489 9.62555 15.2193C9.62555 17.9844 11.8698 20.2263 14.6431 20.2263C17.4111 20.2263 19.6553 17.9844 19.6553 15.2193C19.65 12.4489 17.4111 10.2123 14.6378 10.2069ZM18.2821 18.0377C18.3569 17.8349 18.3836 17.5947 18.405 17.4132C18.3034 17.5093 18.1912 17.6 18.079 17.6854C17.7584 17.9203 17.395 18.0858 17.005 18.1765L16.0378 17.1196L16.0271 17.1303L16.7324 18.3687C16.5294 18.7157 16.2569 19.0199 15.9256 19.2495C15.8134 19.3349 15.6905 19.4096 15.5676 19.4737C15.7492 19.5057 15.979 19.5591 16.1981 19.5484C15.1935 19.906 14.0981 19.906 13.0935 19.5484C13.3126 19.5591 13.5424 19.5057 13.724 19.4737C13.6011 19.4096 13.4782 19.3295 13.366 19.2495C13.0401 19.0146 12.7622 18.7157 12.5591 18.3687L13.2645 17.125L13.2538 17.1143L12.2813 18.1712C11.8912 18.0858 11.5278 17.9203 11.2072 17.6854C11.095 17.6 10.9828 17.5093 10.8813 17.4132C10.908 17.6 10.9294 17.8349 11.0095 18.0431C10.379 17.237 10.037 16.2388 10.037 15.2193C10.037 15.1659 10.037 15.1179 10.0423 15.0698C10.0958 15.2833 10.224 15.5022 10.3149 15.6677C10.3416 15.5289 10.3736 15.3901 10.4164 15.2567C10.5393 14.8723 10.7423 14.5147 11.0095 14.2157L12.3988 14.4987L12.4042 14.4826L11.1057 13.8955C11.0683 13.5005 11.1164 13.1001 11.2393 12.7264C11.282 12.593 11.3355 12.4595 11.3996 12.3314C11.2233 12.4168 10.9828 12.5183 10.8118 12.6677C11.4263 11.7549 12.3401 11.0877 13.4034 10.7888C13.2004 10.9062 13.0294 11.1037 12.8904 11.2478C13.0294 11.2265 13.1737 11.2211 13.3126 11.2211C13.7133 11.2158 14.1141 11.3012 14.4775 11.4613L14.6378 12.8599H14.6538L14.8141 11.456C15.1828 11.2959 15.5782 11.2158 15.979 11.2158C16.1233 11.2158 16.2622 11.2265 16.4011 11.2425C16.2622 11.0984 16.0912 10.9009 15.8882 10.7834C16.9462 11.0823 17.8653 11.7443 18.4744 12.6571C18.3034 12.5076 18.0683 12.4062 17.892 12.3208C17.9561 12.4489 18.0095 12.577 18.0523 12.7158C18.1752 13.0948 18.2233 13.4898 18.1859 13.8848L16.8927 14.4773L16.8981 14.4933L18.2874 14.2104C18.5599 14.5093 18.7576 14.867 18.8805 15.2513C18.9233 15.3848 18.9607 15.5236 18.9821 15.6623C19.0729 15.4969 19.1958 15.2833 19.2546 15.0698C19.2546 15.1179 19.2599 15.1659 19.2599 15.2139C19.2546 16.2388 18.9126 17.2317 18.2821 18.0377Z" fill="white"/>
<path d="M12.6126 14.5574L13.3874 16.9328H15.8935L16.6684 14.5574L14.6432 13.0841L12.6126 14.5574Z" fill="white"/>
<path d="M0.0927124 33.3845V40.105H3.95074V38.5783H1.8347V33.3845H0.0927124Z" fill="white"/>
<path d="M7.16757 36.1229C6.39276 36.1229 5.89047 36.6994 5.89047 37.4147C5.89047 38.162 6.3607 38.7759 7.11413 38.7759C7.84085 38.7759 8.44467 38.2421 8.44467 37.4574C8.44467 36.6727 7.8836 36.1229 7.16757 36.1229ZM4.23932 37.436C4.23932 35.936 5.35077 34.6122 6.84161 34.6122C7.49352 34.6122 7.90498 34.8311 8.38589 35.2688V34.719H9.99429V40.105H8.35917V39.5766C7.93169 39.9983 7.35459 40.2385 6.75077 40.2331C5.25993 40.2385 4.23932 39.1655 4.23932 37.436Z" fill="white"/>
<path d="M14.8194 40.105H10.9561V33.3845H12.7034V38.5783H14.8194V40.105Z" fill="white"/>
<path d="M17.1706 40.105H15.5408V34.719H17.1653L17.1706 40.105ZM15.3859 33.3524C15.3805 32.808 15.8187 32.3649 16.3584 32.3596C16.9034 32.3542 17.3469 32.792 17.3523 33.3311C17.3523 33.8809 16.9034 34.3293 16.353 34.3293H16.3477C15.8187 34.3293 15.3859 33.8969 15.3859 33.3685C15.3859 33.3631 15.3859 33.3578 15.3859 33.3524Z" fill="white"/>
<path d="M20.5851 36.0054C19.8264 36.0054 19.447 36.63 19.447 37.2972C19.447 37.9912 19.8584 38.5623 20.5745 38.5623C21.3867 38.5623 21.8248 37.9111 21.8248 37.3079C21.8248 36.5873 21.4241 36.0054 20.5851 36.0054ZM17.8653 37.3079C17.8653 35.8506 18.7897 34.6122 20.2058 34.6122C20.8897 34.6122 21.3493 34.8311 21.8142 35.3222V34.719H23.3691V39.4645C23.3691 41.1299 22.1187 42 20.6172 42C19.2974 42 18.1432 41.3327 17.9722 40.121H19.7996C20.0241 40.4893 20.2538 40.5587 20.6546 40.5587C21.221 40.5587 21.7447 40.2972 21.7447 39.71C21.75 39.5765 21.75 39.4431 21.734 39.3043C21.4187 39.5872 20.8363 39.9289 20.1951 39.9289C18.8111 39.9289 17.8653 38.7705 17.8653 37.3079Z" fill="white"/>
<path d="M26.9974 36.1229C26.2226 36.1229 25.7203 36.6994 25.7203 37.4147C25.7203 38.162 26.1905 38.7759 26.944 38.7759C27.6707 38.7759 28.2692 38.2421 28.2692 37.4574C28.2692 36.6727 27.7134 36.1229 26.9974 36.1229ZM24.0692 37.436C24.0692 35.936 25.1806 34.6122 26.6714 34.6122C27.3287 34.6122 27.7402 34.8311 28.2157 35.2688V34.719H29.8241V40.105H28.189V39.5766C27.7615 39.9983 27.1844 40.2385 26.5806 40.2331C25.0898 40.2385 24.0692 39.1655 24.0692 37.436Z" fill="white"/>
</svg>
